<svg width="48" height="49" viewBox="0 0 48 49" fill="none" xmlns="http://www.w3.org/2000/svg">
<path d="M26 35.5V44.5L30 41.5L34 44.5V35.5M20 38.5H10C8.93913 38.5 7.92172 38.0786 7.17157 37.3284C6.42143 36.5783 6 35.5609 6 34.5V14.5C6 12.3 7.8 10.5 10 10.5H38C39.0609 10.5 40.0783 10.9214 40.8284 11.6716C41.5786 12.4217 42 13.4391 42 14.5V34.5C41.9993 35.2015 41.8141 35.8904 41.4631 36.4977C41.112 37.105 40.6075 37.6093 40 37.96M12 18.5H36M12 24.5H18M12 30.5H16M24 30.5C24 32.0913 24.6321 33.6174 25.7574 34.7426C26.8826 35.8679 28.4087 36.5 30 36.5C31.5913 36.5 33.1174 35.8679 34.2426 34.7426C35.3679 33.6174 36 32.0913 36 30.5C36 28.9087 35.3679 27.3826 34.2426 26.2574C33.1174 25.1321 31.5913 24.5 30 24.5C28.4087 24.5 26.8826 25.1321 25.7574 26.2574C24.6321 27.3826 24 28.9087 24 30.5Z" stroke="white" stroke-width="4" stroke-linecap="round" stroke-linejoin="round"/>
</svg>
