<svg width="57" height="58" viewBox="0 0 57 58" fill="none" xmlns="http://www.w3.org/2000/svg">
<path d="M24.7118 10.8596C25.7176 6.71347 31.6157 6.71347 32.6215 10.8596C32.7724 11.4824 33.0683 12.0609 33.485 12.5478C33.9017 13.0347 34.4275 13.4163 35.0196 13.6616C35.6117 13.9069 36.2533 14.0089 36.8923 13.9594C37.5312 13.9099 38.1495 13.7102 38.6967 13.3765C42.3399 11.1571 46.5119 15.3268 44.2925 18.9724C43.9593 19.5193 43.7599 20.1372 43.7105 20.7757C43.6611 21.4142 43.763 22.0554 44.008 22.6471C44.2531 23.2389 44.6342 23.7644 45.1206 24.1811C45.607 24.5978 46.1848 24.8938 46.8071 25.0451C50.9532 26.051 50.9532 31.949 46.8071 32.9548C46.1842 33.1058 45.6058 33.4016 45.1189 33.8183C44.632 34.235 44.2503 34.7608 44.005 35.3529C43.7597 35.945 43.6577 36.5866 43.7072 37.2256C43.7568 37.8645 43.9565 38.4828 44.2901 39.03C46.5096 42.6732 42.3399 46.8453 38.6943 44.6258C38.1473 44.2927 37.5295 44.0933 36.891 44.0438C36.2524 43.9944 35.6112 44.0963 35.0195 44.3414C34.4278 44.5864 33.9022 44.9676 33.4856 45.4539C33.0689 45.9403 32.7729 46.5181 32.6215 47.1404C31.6157 51.2865 25.7176 51.2865 24.7118 47.1404C24.5609 46.5175 24.265 45.9391 23.8483 45.4522C23.4316 44.9653 22.9058 44.5837 22.3137 44.3384C21.7217 44.0931 21.08 43.991 20.4411 44.0406C19.8021 44.0901 19.1839 44.2898 18.6367 44.6234C14.9935 46.8429 10.8214 42.6732 13.0408 39.0276C13.374 38.4807 13.5734 37.8628 13.6228 37.2243C13.6723 36.5857 13.5703 35.9446 13.3253 35.3528C13.0803 34.7611 12.6991 34.2356 12.2127 33.8189C11.7264 33.4022 11.1486 33.1062 10.5263 32.9548C6.38016 31.949 6.38016 26.051 10.5263 25.0451C11.1491 24.8942 11.7276 24.5984 12.2145 24.1816C12.7014 23.7649 13.083 23.2391 13.3283 22.6471C13.5736 22.055 13.6756 21.4134 13.6261 20.7744C13.5766 20.1354 13.3768 19.5172 13.0432 18.97C10.8238 15.3268 14.9935 11.1547 18.639 13.3742C21.0001 14.8097 24.0601 13.5394 24.7118 10.8596Z" stroke="black" stroke-width="4.72222" stroke-linecap="round" stroke-linejoin="round"/>
<path d="M21.5833 29C21.5833 30.8786 22.3296 32.6803 23.658 34.0087C24.9864 35.337 26.7881 36.0833 28.6667 36.0833C30.5453 36.0833 32.347 35.337 33.6753 34.0087C35.0037 32.6803 35.75 30.8786 35.75 29C35.75 27.1214 35.0037 25.3197 33.6753 23.9913C32.347 22.6629 30.5453 21.9167 28.6667 21.9167C26.7881 21.9167 24.9864 22.6629 23.658 23.9913C22.3296 25.3197 21.5833 27.1214 21.5833 29Z" stroke="black" stroke-width="4.72222" stroke-linecap="round" stroke-linejoin="round"/>
</svg>
