<svg width="57" height="56" viewBox="0 0 57 56" fill="none" xmlns="http://www.w3.org/2000/svg">
<path d="M46.7083 14.6299C47.5102 15.0859 48.1761 15.7475 48.6375 16.5464C49.0989 17.3452 49.339 18.2527 49.3333 19.1752V36.1712C49.3333 38.0589 48.2996 39.7995 46.6313 40.7165L30.8813 50.6799C30.1004 51.1086 29.2241 51.3333 28.3333 51.3333C27.4425 51.3333 26.5661 51.1086 25.7853 50.6799L10.0353 40.7165C9.219 40.2704 8.53757 39.6132 8.06224 38.8136C7.58691 38.014 7.33515 37.1014 7.33328 36.1712V19.1729C7.33328 17.2852 8.36695 15.5469 10.0353 14.6299L25.7853 5.34319C26.5892 4.89994 27.4923 4.66748 28.4103 4.66748C29.3283 4.66748 30.2314 4.89994 31.0353 5.34319L46.7853 14.6299H46.7083Z" stroke="black" stroke-width="4.66667" stroke-linecap="round" stroke-linejoin="round"/>
<path d="M21.3333 28C21.3333 29.8565 22.0708 31.637 23.3835 32.9497C24.6963 34.2625 26.4768 35 28.3333 35C30.1898 35 31.9703 34.2625 33.283 32.9497C34.5958 31.637 35.3333 29.8565 35.3333 28C35.3333 26.1434 34.5958 24.363 33.283 23.0502C31.9703 21.7375 30.1898 21 28.3333 21C26.4768 21 24.6963 21.7375 23.3835 23.0502C22.0708 24.363 21.3333 26.1434 21.3333 28Z" stroke="black" stroke-width="4.66667" stroke-linecap="round" stroke-linejoin="round"/>
</svg>
