<svg width="61" height="61" viewBox="0 0 61 61" fill="none" xmlns="http://www.w3.org/2000/svg">
<g clip-path="url(#clip0_43_64)">
<path d="M42.1711 31.4982L39.6376 28.9647L40.8002 27.8021L40.9346 27.9365L40.948 27.9231L42.4936 28.333C42.7792 28.4103 43.0413 28.1482 42.964 27.8626L42.5541 26.317L42.5676 26.3036L42.544 26.28L42.4365 26.1725L43.4613 25.1477L43.5117 25.1981L43.5252 25.1847L45.0708 25.5946C45.3564 25.6719 45.6185 25.4098 45.5412 25.1242L45.1313 23.5786L45.1447 23.5651L45.1212 23.5416L45.0943 23.5147L46.1628 22.4462L47.6614 22.8461C47.947 22.9234 48.209 22.6613 48.1318 22.3757L47.7319 20.8738L48.7466 19.859L51.2499 22.3622C51.4481 22.5605 51.7035 22.6579 51.9622 22.6579C52.2209 22.6579 52.4796 22.5605 52.6745 22.3622L58.6587 16.378C59.0518 15.9849 59.0518 15.3465 58.6587 14.9534L44.1736 0.46159C43.7805 0.0684673 43.1421 0.0684673 42.749 0.46159L36.7648 6.4458C36.3717 6.83892 36.3717 7.47733 36.7648 7.87045L39.1067 10.2124L38.092 11.2271L36.5901 10.8273C36.3045 10.75 36.0424 11.0121 36.1197 11.2977L36.5195 12.7996L35.3771 13.942L34.0028 13.5758C33.7172 13.4985 33.4552 13.7606 33.5324 14.0462L33.8987 15.4204L32.6723 16.6468L31.4257 16.3176C31.1401 16.2403 30.878 16.5024 30.9553 16.788L31.2879 18.0345L30.0011 19.3214L27.5617 16.882C27.182 16.5057 26.5133 16.5057 26.137 16.882L0.795698 42.2234C0.607536 42.4115 0.500015 42.6702 0.500015 42.9357C0.500015 43.2011 0.607536 43.4599 0.795698 43.648L15.4051 58.2574C15.6033 58.4557 15.8587 58.5531 16.1174 58.5531C16.3761 58.5531 16.6349 58.4557 16.8297 58.2574L42.1677 32.9195C42.5608 32.5263 42.5608 31.8879 42.1677 31.4948L42.1711 31.4982ZM46.3375 19.4121L39.5503 12.6249L40.5347 11.6404L47.322 18.4277L46.3375 19.4121ZM38.9018 7.15812L43.4613 2.59857L56.5184 15.6556L51.9588 20.2152L50.1679 18.4243L50.2385 18.3537L40.6019 8.71718L40.5314 8.78774L38.9018 7.15812ZM37.9139 14.2579L44.7012 21.0451L43.6663 22.08L36.879 15.2928L37.9139 14.2579ZM35.2427 16.9291L42.0299 23.7163L41.0051 24.7411L34.2179 17.9539L35.2427 16.9291ZM32.5849 19.5902L39.3722 26.3775L38.2096 27.54L31.4223 20.7528L32.5849 19.5902ZM16.1174 56.1238L2.93267 42.9357L26.846 19.0257L28.573 20.7528L28.5092 20.8166L38.1458 30.4532L38.2096 30.3893L40.0307 32.2105L16.1174 56.1238Z" fill="#1D1D1B"/>
<path d="M35.6761 31.2799L15.3043 52.0348C14.9145 52.4312 14.9212 53.0697 15.3177 53.4594C15.5126 53.6509 15.768 53.7484 16.0233 53.7484C16.2787 53.7484 16.5441 53.6476 16.7424 53.446L37.1142 32.6911C37.504 32.2946 37.4973 31.6562 37.1008 31.2664C36.7043 30.8767 36.0659 30.8834 35.6761 31.2799Z" fill="#1D1D1B"/>
<path d="M52.2243 18.4648C52.483 18.4648 52.7417 18.3674 52.9366 18.1691L54.7611 16.3446C55.1542 15.9515 55.1542 15.3131 54.7611 14.92C54.368 14.5268 53.7296 14.5268 53.3364 14.92L51.5119 16.7445C51.1188 17.1376 51.1188 17.776 51.5119 18.1691C51.7102 18.3674 51.9655 18.4648 52.2243 18.4648Z" fill="#1D1D1B"/>
<path d="M49.4321 38.2016C43.3303 38.2016 38.3642 43.1677 38.3642 49.2695C38.3642 55.3713 43.3303 60.3375 49.4321 60.3375C55.5339 60.3375 60.5 55.3713 60.5 49.2695C60.5 43.1677 55.5339 38.2016 49.4321 38.2016ZM49.4321 58.3181C44.4425 58.3181 40.3802 54.2592 40.3802 49.2662C40.3802 44.2732 44.4391 40.2143 49.4321 40.2143C54.4251 40.2143 58.484 44.2732 58.484 49.2662C58.484 54.2592 54.4251 58.3181 49.4321 58.3181Z" fill="#1D1D1B"/>
<path d="M56.0816 47.1292C55.5272 47.1124 55.0568 47.5425 55.0366 48.1002C54.8115 54.3029 49.254 54.7565 49.0591 54.7699C48.5148 54.7833 48.078 55.2302 48.078 55.7779C48.078 56.3256 48.5282 56.7859 49.086 56.7859C49.1633 56.7859 56.7603 56.2786 57.0526 48.1742C57.0728 47.6164 56.6393 47.1494 56.0816 47.1292Z" fill="#1D1D1B"/>
</g>
<defs>
<clipPath id="clip0_43_64">
<rect width="60" height="60.168" fill="white" transform="translate(0.5 0.166016)"/>
</clipPath>
</defs>
</svg>
