<svg width="61" height="61" viewBox="0 0 61 61" fill="none" xmlns="http://www.w3.org/2000/svg">
<g clip-path="url(#clip0_14_41)">
<path d="M60.2121 6.53503L54.8801 1.203C54.5105 0.83663 53.8595 0.83663 53.4931 1.203L51.6613 3.03486L51.6515 3.02505L51.7005 2.97598L50.3495 2.61288C50.1042 2.54746 49.8818 2.7699 49.9472 3.01524L50.2874 4.28118L50.2089 4.35969L50.2743 4.42512L48.9495 5.74994L46.4078 3.20824C46.0414 2.84186 45.3872 2.84186 45.0208 3.20824L39.8294 8.3996C39.4467 8.78233 39.4467 9.40385 39.8294 9.78658L42.1618 12.1189L41.0103 13.2508L37.2223 9.42021C36.8396 9.03421 36.2213 9.03094 35.8353 9.41367C35.4493 9.79639 35.446 10.4179 35.8288 10.8006L39.6135 14.6247L38.5144 15.7041L37.3564 15.3934C37.1111 15.328 36.8886 15.5504 36.954 15.7957L37.2583 16.9374L35.6816 18.4879L34.3764 18.1379C34.131 18.0725 33.9086 18.2949 33.974 18.5403L34.3175 19.8258L33.0712 21.0493L31.7823 20.7058C31.537 20.6404 31.3145 20.8628 31.38 21.1081L31.7202 22.3774L13.3459 40.4245C13.2511 40.395 13.1497 40.3721 13.0483 40.3721C12.7866 40.3721 12.538 40.4768 12.3548 40.66L3.80717 49.2076C3.62399 49.3908 3.51931 49.6427 3.51931 49.9011C3.51931 49.9567 3.52585 50.009 3.53567 50.0614L0.787873 52.7601C0.408416 53.133 0.395331 53.7382 0.755161 54.1274L6.45683 60.2642C6.63674 60.4604 6.8919 60.5717 7.15686 60.5782C7.1634 60.5782 7.16995 60.5782 7.17649 60.5782C7.43491 60.5782 7.68679 60.4768 7.86998 60.2903L10.7682 57.3986C10.8664 57.4313 10.9678 57.451 11.0692 57.451C11.3211 57.451 11.573 57.3561 11.7627 57.1631L20.3103 48.6188C20.5752 48.3538 20.6505 47.9809 20.5523 47.6472L38.8611 29.394L39.957 29.6884C40.2023 29.7539 40.4248 29.5314 40.3593 29.2861L40.0649 28.1935L41.4356 26.8262L42.5445 27.1238C42.7898 27.1893 43.0123 26.9668 42.9468 26.7215L42.6492 25.6158L44.2324 24.0358L45.5213 24.3826C45.7666 24.448 45.9891 24.2256 45.9236 23.9802L45.5802 22.6947L46.5877 21.6904L50.5098 25.6518C50.7028 25.8448 50.9547 25.9429 51.2066 25.9429C51.4585 25.9429 51.7071 25.8481 51.8968 25.6583C52.2828 25.2756 52.2861 24.6541 51.9033 24.2714L47.9779 20.3034L49.1588 19.1258L51.5206 21.4876C51.7136 21.6806 51.9622 21.7755 52.2141 21.7755C52.466 21.7755 52.7179 21.6806 52.9076 21.4876L58.099 16.2962C58.4817 15.9135 58.4817 15.292 58.099 14.9093L55.6619 12.4722L57.098 11.0362L58.1349 11.3142C58.3803 11.3796 58.6027 11.1572 58.5373 10.9119L58.2593 9.8749L60.2056 7.92855C60.5883 7.54582 60.5883 6.9243 60.2056 6.54157L60.2121 6.53503ZM10.6996 54.6999L9.13593 53.1363L12.4627 49.8095C12.8454 49.4268 12.8454 48.8052 12.4627 48.4225C12.08 48.0398 11.4585 48.0398 11.0757 48.4225L7.74895 51.7493L6.19841 50.1987L13.4212 43.1036L17.87 47.5524L10.6996 54.6999ZM14.8212 41.7264L33.0842 23.784L37.3891 28.0888L19.2602 46.1654L14.8212 41.7264ZM34.4843 22.4101L35.6848 21.2324L39.9701 25.5177L38.7794 26.7051L34.4876 22.4133L34.4843 22.4101ZM41.3571 24.1307L37.0816 19.8553L38.5667 18.3963L42.8291 22.6587L41.3538 24.1274L41.3571 24.1307ZM7.2092 58.1772L2.84872 53.4863L4.79507 51.5727L9.30603 56.0836L7.20593 58.1772H7.2092ZM44.2226 21.275L39.9701 17.0224L40.9907 16.0215L45.2138 20.2903L44.2226 21.2782V21.275ZM42.3908 14.6443L43.4702 13.5844L47.533 17.9743L46.604 18.9034L42.3908 14.6476V14.6443ZM45.7143 5.28871L50.0878 9.66228L46.2835 13.4667L41.9099 9.09309L45.7143 5.28871ZM52.2206 19.3973L47.6737 14.8504L51.4781 11.046L56.025 15.5929L52.2206 19.3973ZM54.1866 3.28674L58.1284 7.22852L56.99 8.36689L53.0483 4.42512L54.1866 3.28674ZM55.6031 9.75387L54.5595 10.7974L50.6178 6.8556L51.6613 5.8121L55.6031 9.75387Z" fill="#1D1D1B"/>
<path d="M47.4251 36.2209C40.7846 36.2209 35.3806 41.6249 35.3806 48.2654C35.3806 54.9059 40.7846 60.3099 47.4251 60.3099C54.0656 60.3099 59.4696 54.9059 59.4696 48.2654C59.4696 41.6249 54.0656 36.2209 47.4251 36.2209ZM47.4251 58.3472C41.8674 58.3472 37.3433 53.8264 37.3433 48.2654C37.3433 42.7044 41.8641 38.1837 47.4251 38.1837C52.9861 38.1837 57.5069 42.7044 57.5069 48.2654C57.5069 53.8264 52.9861 58.3472 47.4251 58.3472Z" fill="#1D1D1B"/>
<path d="M51.5272 40.1824H43.3263C42.9763 40.1824 42.6524 40.3688 42.4758 40.6731L38.3737 47.7748C38.1971 48.079 38.1971 48.4519 38.3737 48.7561L42.4758 55.8579C42.6524 56.1621 42.9763 56.3485 43.3263 56.3485H51.5272C51.8772 56.3485 52.201 56.1621 52.3777 55.8579L56.4797 48.7561C56.6564 48.4519 56.6564 48.079 56.4797 47.7748L52.3777 40.6731C52.201 40.3688 51.8772 40.1824 51.5272 40.1824ZM50.9612 54.3858H43.8922L40.3593 48.2655L43.8922 42.1451H50.9612L54.4941 48.2655L50.9612 54.3858Z" fill="#1D1D1B"/>
<path d="M42.3384 48.2655C42.3384 51.0722 44.6217 53.3555 47.4284 53.3555C50.235 53.3555 52.5151 51.0722 52.5151 48.2655C52.5151 45.4588 50.2318 43.1788 47.4284 43.1788C44.625 43.1788 42.3384 45.4621 42.3384 48.2655ZM50.5523 48.2655C50.5523 49.9894 49.149 51.3928 47.4284 51.3928C45.7077 51.3928 44.3011 49.9894 44.3011 48.2655C44.3011 46.5416 45.7045 45.1415 47.4284 45.1415C49.1523 45.1415 50.5523 46.5449 50.5523 48.2655Z" fill="#1D1D1B"/>
</g>
<defs>
<clipPath id="clip0_14_41">
<rect width="60" height="59.6434" fill="white" transform="translate(0.5 0.928223)"/>
</clipPath>
</defs>
</svg>
