<svg width="57" height="56" viewBox="0 0 57 56" fill="none" xmlns="http://www.w3.org/2000/svg">
<path d="M7.33328 28H9.66662M28.3333 7V9.33333M46.9999 28H49.3333M13.3999 13.0667L15.0333 14.7M43.2666 13.0667L41.6333 14.7M22.9666 39.6667H33.6999M21.3333 37.3333C19.3744 35.8642 17.9274 33.8159 17.1973 31.4786C16.4672 29.1414 16.491 26.6336 17.2653 24.3107C18.0396 21.9877 19.5252 19.9672 21.5117 18.5355C23.4981 17.1038 25.8847 16.3333 28.3333 16.3333C30.7819 16.3333 33.1685 17.1038 35.1549 18.5355C37.1413 19.9672 38.6269 21.9877 39.4013 24.3107C40.1756 26.6336 40.1994 29.1414 39.4693 31.4786C38.7392 33.8159 37.2922 35.8642 35.3333 37.3333C34.4223 38.2351 33.7363 39.3387 33.331 40.5548C32.9256 41.7709 32.8122 43.0653 32.9999 44.3333C32.9999 45.571 32.5083 46.758 31.6331 47.6332C30.7579 48.5083 29.571 49 28.3333 49C27.0956 49 25.9086 48.5083 25.0335 47.6332C24.1583 46.758 23.6666 45.571 23.6666 44.3333C23.8543 43.0653 23.7409 41.7709 23.3356 40.5548C22.9302 39.3387 22.2443 38.2351 21.3333 37.3333Z" stroke="black" stroke-width="4.66667" stroke-linecap="round" stroke-linejoin="round"/>
</svg>
