<svg width="61" height="62" viewBox="0 0 61 62" fill="none" xmlns="http://www.w3.org/2000/svg">
<g clip-path="url(#clip0_6_96)">
<path d="M59.8777 16.6518L59.8012 16.4755L44.3977 1.24505L44.2247 1.17184C42.9369 0.61946 41.902 0.626115 41.1467 1.18848C40.1517 1.93719 40.195 3.29485 40.2249 3.65091V15.3774L37.3133 18.2691L36.2118 18.0128C35.9722 17.9563 35.756 18.1726 35.8125 18.4121L36.0687 19.5069L34.4715 21.0942L33.6596 20.9045C33.42 20.848 33.2037 21.0642 33.2603 21.3038L33.4466 22.1091L31.7695 23.7762L30.7213 23.5333C30.4817 23.4768 30.2654 23.6931 30.322 23.9326L30.5649 24.9742L29.5899 25.9425L28.3321 25.6497C28.0925 25.5931 27.8762 25.8094 27.9328 26.049L28.2223 27.2968L27.0543 28.4582L25.3938 28.0722C25.1542 28.0156 24.9379 28.2319 24.9945 28.4715L25.3772 30.122L24.1493 31.3399L22.7284 31.0105C22.4888 30.9539 22.2725 31.1702 22.3291 31.4098L22.6585 32.8207L21.8033 33.6725L20.0563 33.2666C19.8167 33.21 19.6004 33.4263 19.657 33.6659L20.063 35.4029L18.9582 36.501L17.6837 36.2048C17.4442 36.1483 17.2279 36.3646 17.2844 36.6042L17.5806 37.872L16.4625 38.9801L15.0217 38.644C14.7821 38.5874 14.5658 38.8037 14.6223 39.0433L14.9551 40.4742L13.8104 41.6089L12.4428 41.2894C12.2032 41.2328 11.9869 41.4491 12.0435 41.6887L12.3596 43.0497L11.1982 44.2044L9.77736 43.875C9.53777 43.8184 9.32148 44.0347 9.37805 44.2743L9.70748 45.6852L8.44299 46.943L6.84241 46.5703C6.60283 46.5138 6.38653 46.73 6.4431 46.9696L6.81247 48.5636L5.71103 49.655L4.177 49.299C3.93742 49.2424 3.72112 49.4587 3.77769 49.6983L4.13375 51.2223L3.04895 52.3005L1.95749 52.0476C1.71791 51.991 1.50161 52.2073 1.55818 52.4469L1.96748 54.2038L2.13386 54.0375L2.3801 54.2837L0.490021 61.7542L7.89394 59.8009L8.00707 59.914L8.20008 59.721L7.84069 60.0804L9.59767 60.4897C9.83726 60.5463 10.0536 60.33 9.99698 60.0904L9.62429 58.4831L10.6425 57.4682L11.8205 57.7411C12.0601 57.7977 12.2764 57.5814 12.2198 57.3418L11.947 56.1671L13.3678 54.7529L14.4826 55.0125C14.7222 55.069 14.9385 54.8527 14.8819 54.6131L14.6223 53.5017L16.1164 52.0143L17.4175 52.3171C17.6571 52.3737 17.8734 52.1574 17.8168 51.9178L17.514 50.62L18.722 49.4154L20.0796 49.7315C20.3192 49.7881 20.5355 49.5718 20.4789 49.3322L20.1628 47.9779L21.3641 46.7833L22.6552 47.0828C22.8948 47.1393 23.1111 46.923 23.0545 46.6835L22.755 45.3957L23.8564 44.3009L25.3173 44.6403C25.5569 44.6969 25.7731 44.4806 25.7166 44.241L25.3772 42.7835L26.6949 41.4691L27.6898 41.702C27.9294 41.7586 28.1457 41.5423 28.0892 41.3027L27.8596 40.3111L29.0375 39.1365L30.3652 39.4459C30.6048 39.5025 30.8211 39.2862 30.7645 39.0466L30.4551 37.7256L31.9325 36.2548L33.0273 36.5077C33.2669 36.5642 33.4832 36.3479 33.4266 36.1083L33.1737 35.0202L34.4648 33.7358L35.9656 34.0852C36.2052 34.1417 36.4215 33.9254 36.3649 33.6858L36.0155 32.1884L36.6378 31.5695L38.3515 31.9688C38.5911 32.0254 38.8074 31.8091 38.7508 31.5695L38.3548 29.8624L39.5794 28.6445L39.7025 28.7676L40.7873 27.6829L39.5361 28.934L41.2931 29.3433C41.5327 29.3999 41.749 29.1836 41.6924 28.944L41.2831 27.187L41.1167 27.3534L40.9969 27.2336L42.1749 26.0623L43.8487 26.4516C44.0883 26.5082 44.3046 26.2919 44.248 26.0523L43.8587 24.3852L46.737 21.5168C48.5406 21.6033 55.3688 21.9294 57.8313 21.9993C59.0858 22.0359 59.728 21.4769 60.0508 21.001C61.0457 19.5302 60.0741 17.121 59.8678 16.6518H59.8777ZM41.13 17.2907L44.8869 20.5485L42.3213 23.1041L38.8107 19.5934L41.13 17.2907ZM4.60294 53.6614L4.63289 53.545L5.63449 52.55L9.18172 56.0973L8.1069 57.1687L4.60294 53.6648V53.6614ZM7.05205 51.1391L8.33984 49.8613L11.8837 53.4052L10.5993 54.6863L7.05205 51.1391ZM9.75739 48.4537L11.165 47.0528L14.7055 50.5934L13.298 51.9943L9.75407 48.4504L9.75739 48.4537ZM12.5825 45.6486L13.8004 44.4407L17.3377 47.9779L16.1231 49.1891L12.5825 45.6486ZM15.2147 43.0331L16.4193 41.8351L19.9565 45.3724L18.7519 46.5703L15.2147 43.0331ZM17.8368 40.4276L18.9815 39.2929L22.5154 42.8268L21.3741 43.9648L17.8401 40.4309L17.8368 40.4276ZM20.3957 37.8853L21.6436 36.6441L25.1742 40.1747L23.9263 41.4159L20.3957 37.8853ZM23.0611 35.2398L24.116 34.1916L27.6433 37.7189L26.5884 38.7704L23.0611 35.2432V35.2398ZM29.0575 36.308L25.5336 32.7841L26.9245 31.3998L30.4484 34.9237L29.0575 36.308ZM28.3421 29.9955L29.6132 28.731L33.1338 32.2516L31.8627 33.5161L28.3421 29.9955ZM34.548 30.8407L31.0308 27.3235L31.8726 26.4849L35.3899 30.0022L34.548 30.8407ZM3.26524 58.9457L4.03059 55.9142L6.27007 58.1537L3.26524 58.9457ZM36.8075 28.5946L33.2902 25.0773L34.6645 23.713L38.1784 27.227L36.8041 28.5946H36.8075ZM36.0821 22.3054L37.3965 21.001L40.9071 24.5116L39.596 25.8194L36.0821 22.3054ZM58.4069 19.8829C58.3271 20.0027 58.0276 20.0094 57.9011 20.0027C55.4054 19.9295 48.3775 19.5934 46.747 19.5169L42.2248 15.597V8.15981L54.1376 19.061C54.3306 19.2374 54.5702 19.3239 54.8098 19.3239C55.0793 19.3239 55.3489 19.2141 55.5452 19.0011C55.9179 18.5952 55.8879 17.9629 55.482 17.5902L42.4344 5.64414C42.3712 5.58424 42.298 5.54098 42.2248 5.50105V3.59766L42.2182 3.47787C42.1915 3.25159 42.2514 2.85228 42.3479 2.7824C42.3879 2.75245 42.6607 2.69921 43.273 2.93547L58.1208 17.6169C58.4502 18.4488 58.6365 19.5402 58.4069 19.8796V19.8829Z" fill="#1D1D1B"/>
<path d="M47.6122 42.0846H41.4994V46.4171H37.1669V52.5299H41.4994V56.8625H47.6122V52.5299H51.9448V46.4171H47.6122V42.0846ZM49.9515 48.4137V50.5334H45.619V54.8659H43.4993V50.5334H39.1668V48.4137H43.4993V44.0812H45.619V48.4137H49.9515Z" fill="#1D1D1B"/>
<path d="M44.5575 37.3062C37.8457 37.3062 32.3885 42.7668 32.3885 49.4753C32.3885 56.1837 37.8491 61.6443 44.5575 61.6443C51.2659 61.6443 56.7265 56.1837 56.7265 49.4753C56.7265 42.7668 51.2659 37.3062 44.5575 37.3062ZM44.5575 59.6477C38.9472 59.6477 34.385 55.0856 34.385 49.4753C34.385 43.8649 38.9472 39.3028 44.5575 39.3028C50.1678 39.3028 54.73 43.8649 54.73 49.4753C54.73 55.0856 50.1678 59.6477 44.5575 59.6477Z" fill="#1D1D1B"/>
</g>
<defs>
<clipPath id="clip0_6_96">
<rect width="60" height="60.9816" fill="white" transform="translate(0.5 0.759155)"/>
</clipPath>
</defs>
</svg>
