<svg width="61" height="61" viewBox="0 0 61 61" fill="none" xmlns="http://www.w3.org/2000/svg">
<g clip-path="url(#clip0_14_46)">
<path d="M25.1122 39.2384C25.2807 39.4069 25.5009 39.4895 25.721 39.4895C25.9411 39.4895 26.1612 39.4069 26.3297 39.2384L38.7975 26.7706C39.1346 26.4336 39.1346 25.8901 38.7975 25.5531C38.4604 25.216 37.917 25.216 37.58 25.5531L25.1122 38.0208C24.7751 38.3579 24.7751 38.9013 25.1122 39.2384Z" fill="#1D1D1B"/>
<path d="M60.4896 10.6055L60.2007 9.52213L60.242 9.48086C60.4037 9.31921 60.4931 9.10253 60.4931 8.87209V4.7242C60.4931 4.4972 60.4037 4.27708 60.242 4.11543L57.0503 0.923682C56.8886 0.762031 56.6719 0.672607 56.4415 0.672607H52.5756C52.3486 0.672607 52.1285 0.762031 51.9669 0.923682L51.7158 1.17476L50.8181 0.934C50.5602 0.865213 50.3263 1.09909 50.3951 1.35704L50.6358 2.25472L48.8783 4.01225L47.9806 3.77149C47.7227 3.7027 47.4888 3.93658 47.5576 4.19453L47.7983 5.09221L46.3366 6.55395L45.4389 6.31319C45.181 6.2444 44.9471 6.47828 45.0159 6.73624L45.2566 7.63391L43.5816 9.30889L42.684 9.06814C42.426 8.99935 42.1921 9.23323 42.2609 9.49118L42.5017 10.3889L41.0399 11.8506L40.1423 11.6098C39.8843 11.5411 39.6504 11.7749 39.7192 12.0329L39.96 12.9306L38.2884 14.6021L37.2532 14.3235C36.9952 14.2547 36.7614 14.4886 36.8301 14.7466L37.1087 15.7818L35.475 17.4155L34.997 16.9374L17.095 34.8394L17.573 35.3175L15.3237 37.5668L14.4982 37.3467C14.2403 37.2779 14.0064 37.5118 14.0752 37.7698L14.2953 38.5952L12.4896 40.4009L11.6642 40.1808C11.4062 40.112 11.1724 40.3459 11.2411 40.6038L11.4613 41.4293L9.94794 42.9426L9.12249 42.7225C8.86453 42.6537 8.63066 42.8876 8.69944 43.1455L8.91956 43.971L7.19299 45.6975L6.36754 45.4774C6.10959 45.4086 5.87571 45.6425 5.9445 45.9005L6.16462 46.7259L4.65129 48.2393L3.82584 48.0191C3.56789 47.9503 3.33401 48.1842 3.4028 48.4422L3.62292 49.2676L1.89979 50.9908L0.933322 50.7328C0.675368 50.664 0.44149 50.8979 0.510278 51.1558L0.778549 52.1567C0.699444 52.2874 0.654732 52.4387 0.654732 52.5935V56.4594C0.654732 56.6864 0.744156 56.9065 0.905807 57.0681L4.09755 60.2633C4.2592 60.425 4.47588 60.5144 4.70632 60.5144H8.85422C8.96428 60.5144 9.07434 60.4938 9.17408 60.4525L9.08809 60.5385L10.1818 60.8308C10.4398 60.8996 10.6736 60.6657 10.6049 60.4078L10.3331 59.3932L12.1835 57.5428C12.2145 57.5393 12.242 57.5393 12.273 57.5325L11.9806 57.8248L13.0743 58.1172C13.3323 58.1859 13.5662 57.9521 13.4974 57.6941L13.205 56.6004L12.9161 56.8893C12.923 56.8618 12.923 56.8308 12.9264 56.8033L14.7287 55.0011C14.7596 54.9976 14.7871 54.9976 14.8181 54.9908L14.5258 55.2831L15.6195 55.5755C15.8774 55.6442 16.1113 55.4104 16.0425 55.1524L15.7502 54.0587L15.4613 54.3476C15.4681 54.3201 15.4681 54.2891 15.4716 54.2616L17.4836 52.2496C17.5146 52.2461 17.5421 52.2461 17.573 52.2393L17.2807 52.5316L18.3744 52.8239C18.6324 52.8927 18.8663 52.6589 18.7975 52.4009L18.5051 51.3072L18.2162 51.5961C18.2231 51.5686 18.2231 51.5376 18.2265 51.5101L20.0288 49.7079C20.0597 49.7044 20.0872 49.7044 20.1182 49.6975L19.8258 49.9899L20.9196 50.2822C21.1775 50.351 21.4114 50.1172 21.3426 49.8592L21.0503 48.7655L20.7614 49.0544C20.7682 49.0269 20.7682 48.9959 20.7717 48.9684L22.8663 46.8738C22.8972 46.8704 22.9247 46.8704 22.9557 46.8635L22.6633 47.1558L23.7571 47.4482C24.015 47.517 24.2489 47.2831 24.1801 47.0251L23.8878 45.9314L23.5988 46.2203C23.6057 46.1928 23.6057 46.1619 23.6092 46.1343L25.9995 43.744L26.598 44.3424L44.5 26.4405L43.9015 25.842L45.5696 24.1739L46.5154 24.4284C46.7734 24.4972 47.0073 24.2633 46.9385 24.0054L46.684 23.0595L48.3211 21.4224L49.4045 21.7113C49.6625 21.7801 49.8963 21.5462 49.8276 21.2883L49.5387 20.2049L50.8628 18.8807L51.9462 19.1696C52.2042 19.2384 52.438 19.0045 52.3693 18.7466L52.0804 17.6632L53.6178 16.1257L54.7012 16.4147C54.9591 16.4834 55.193 16.2496 55.1242 15.9916L54.8353 14.9082L56.1595 13.584L57.2429 13.873C57.5008 13.9417 57.7347 13.7079 57.6659 13.4499L57.377 12.3665L58.9935 10.75L60.0769 11.0389C60.3349 11.1077 60.5687 10.8738 60.5 10.6159L60.4896 10.6055ZM19.7846 47.4998L13.8 41.5153L15.42 39.8953L21.4045 45.8798L19.7846 47.4998ZM17.2429 50.0415L11.2583 44.057L12.5825 42.7328L18.567 48.7173L17.2429 50.0415ZM14.4914 52.793L8.50684 46.8085L10.0442 45.2711L16.0288 51.2556L14.4914 52.793ZM11.9497 55.3347L5.96514 49.3502L7.2893 48.026L13.2738 54.0105L11.9497 55.3347ZM9.14656 58.1378L3.16204 52.1533L4.74759 50.5677L10.7321 56.5522L9.14656 58.1378ZM2.37786 56.0914V53.7973L7.36153 58.781H5.06746L2.37786 56.0914ZM22.6186 44.6657L16.6341 38.6812L18.6117 36.7036L24.5963 42.6881L22.6186 44.6657ZM56.1491 11.1352L50.1646 5.15068L51.7846 3.53073L57.7691 9.51526L56.1491 11.1352ZM53.6074 13.6769L47.6229 7.69238L48.9471 6.36822L54.9316 12.3527L53.6074 13.6769ZM50.8525 16.4319L44.868 10.4473L46.4054 8.90992L52.3899 14.8944L50.8525 16.4319ZM48.3108 18.9736L42.3263 12.989L43.6504 11.6649L49.635 17.6494L48.3108 18.9736ZM45.5111 21.7766L39.5266 15.7921L41.1122 14.2066L47.0967 20.1911L45.5111 21.7766ZM58.77 5.07845V8.08791L53.0709 2.38886H56.0804L58.77 5.07845ZM26.5842 41.8936L19.5232 34.8325L34.9935 19.3622L42.0546 26.4233L26.5842 41.8936ZM40.4828 22.4164L36.6926 18.6262L38.3125 17.0062L44.297 22.9908L42.6771 24.6107L40.4828 22.4164Z" fill="#1D1D1B"/>
<path d="M44.7683 36.2633C39.6986 36.2633 35.5748 40.3871 35.5748 45.4568C35.5748 50.5264 39.6986 54.6502 44.7683 54.6502C49.8379 54.6502 53.9617 50.5264 53.9617 45.4568C53.9617 40.3871 49.8379 36.2633 44.7683 36.2633ZM44.7683 52.5832C40.837 52.5832 37.6384 49.3845 37.6384 45.4533C37.6384 41.5221 40.837 38.3235 44.7683 38.3235C48.6995 38.3235 51.8981 41.5221 51.8981 45.4533C51.8981 49.3845 48.6995 52.5832 44.7683 52.5832Z" fill="#1D1D1B"/>
<path d="M48.7751 43.541C48.2042 43.541 47.7433 44.0019 47.7433 44.5728C47.7433 48.081 44.0804 48.4628 43.6608 48.4972C43.0933 48.5384 42.6668 49.0303 42.7046 49.5978C42.7425 50.1412 43.1965 50.5574 43.733 50.5574C43.7571 50.5574 43.7812 50.5574 43.8052 50.5574C45.8792 50.4129 49.807 48.9787 49.807 44.5763C49.807 44.0053 49.3461 43.5445 48.7751 43.5445V43.541Z" fill="#1D1D1B"/>
</g>
<defs>
<clipPath id="clip0_14_46">
<rect width="60" height="60.1617" fill="white" transform="translate(0.5 0.669189)"/>
</clipPath>
</defs>
</svg>
