<svg width="56" height="56" viewBox="0 0 56 56" fill="none" xmlns="http://www.w3.org/2000/svg">
<path d="M21 35L35 21M23.3333 22.1667C23.3333 22.811 22.811 23.3334 22.1667 23.3334C21.5223 23.3334 21 22.811 21 22.1667C21 21.5224 21.5223 21 22.1667 21C22.811 21 23.3333 21.5224 23.3333 22.1667ZM35 33.8334C35 34.4777 34.4777 35 33.8333 35C33.189 35 32.6667 34.4777 32.6667 33.8334C32.6667 33.189 33.189 32.6667 33.8333 32.6667C34.4777 32.6667 35 33.189 35 33.8334ZM11.6667 16.8C11.6667 15.4385 12.2075 14.1328 13.1702 13.1702C14.1329 12.2075 15.4386 11.6666 16.8 11.6666H19.1333C20.4888 11.6659 21.7889 11.129 22.75 10.1733L24.3833 8.53998C24.8604 8.06024 25.4275 7.67954 26.0522 7.41976C26.6769 7.15998 27.3468 7.02625 28.0233 7.02625C28.6999 7.02625 29.3697 7.15998 29.9944 7.41976C30.6191 7.67954 31.1863 8.06024 31.6633 8.53998L33.2967 10.1733C34.2578 11.129 35.5579 11.6659 36.9133 11.6666H39.2467C40.6081 11.6666 41.9138 12.2075 42.8765 13.1702C43.8392 14.1328 44.38 15.4385 44.38 16.8V19.1333C44.3808 20.4887 44.9176 21.7889 45.8733 22.75L47.5067 24.3833C47.9864 24.8604 48.3671 25.4275 48.6269 26.0522C48.8867 26.6769 49.0204 27.3468 49.0204 28.0233C49.0204 28.6999 48.8867 29.3697 48.6269 29.9944C48.3671 30.6191 47.9864 31.1863 47.5067 31.6633L45.8733 33.2966C44.9176 34.2578 44.3808 35.5579 44.38 36.9133V39.2466C44.38 40.6081 43.8392 41.9138 42.8765 42.8765C41.9138 43.8391 40.6081 44.38 39.2467 44.38H36.9133C35.5579 44.3808 34.2578 44.9176 33.2967 45.8733L31.6633 47.5066C31.1863 47.9864 30.6191 48.3671 29.9944 48.6269C29.3697 48.8866 28.6999 49.0204 28.0233 49.0204C27.3468 49.0204 26.6769 48.8866 26.0522 48.6269C25.4275 48.3671 24.8604 47.9864 24.3833 47.5066L22.75 45.8733C21.7889 44.9176 20.4888 44.3808 19.1333 44.38H16.8C15.4386 44.38 14.1329 43.8391 13.1702 42.8765C12.2075 41.9138 11.6667 40.6081 11.6667 39.2466V36.9133C11.6659 35.5579 11.1291 34.2578 10.1733 33.2966L8.54 31.6633C8.06027 31.1863 7.67956 30.6191 7.41978 29.9944C7.16 29.3697 7.02627 28.6999 7.02627 28.0233C7.02627 27.3468 7.16 26.6769 7.41978 26.0522C7.67956 25.4275 8.06027 24.8604 8.54 24.3833L10.1733 22.75C11.1291 21.7889 11.6659 20.4887 11.6667 19.1333V16.8Z" stroke="black" stroke-width="4.66667" stroke-linecap="round" stroke-linejoin="round"/>
</svg>
