<svg width="56" height="56" viewBox="0 0 56 56" fill="none" xmlns="http://www.w3.org/2000/svg">
<path d="M11.6667 39.6666C11.6667 40.9043 12.1583 42.0913 13.0335 42.9665C13.9087 43.8416 15.0957 44.3333 16.3333 44.3333C17.571 44.3333 18.758 43.8416 19.6332 42.9665C20.5083 42.0913 21 40.9043 21 39.6666M11.6667 39.6666C11.6667 38.429 12.1583 37.242 13.0335 36.3668C13.9087 35.4916 15.0957 35 16.3333 35C17.571 35 18.758 35.4916 19.6332 36.3668C20.5083 37.242 21 38.429 21 39.6666M11.6667 39.6666H7V14C7 13.3811 7.24583 12.7876 7.68342 12.35C8.121 11.9125 8.71449 11.6666 9.33333 11.6666H30.3333V39.6666M21 39.6666H35M35 39.6666C35 40.9043 35.4917 42.0913 36.3668 42.9665C37.242 43.8416 38.429 44.3333 39.6667 44.3333C40.9043 44.3333 42.0913 43.8416 42.9665 42.9665C43.8417 42.0913 44.3333 40.9043 44.3333 39.6666M35 39.6666C35 38.429 35.4917 37.242 36.3668 36.3668C37.242 35.4916 38.429 35 39.6667 35C40.9043 35 42.0913 35.4916 42.9665 36.3668C43.8417 37.242 44.3333 38.429 44.3333 39.6666M44.3333 39.6666H49V25.6666M49 25.6666H30.3333M49 25.6666L42 14H30.3333" stroke="black" stroke-width="4.66667" stroke-linecap="round" stroke-linejoin="round"/>
</svg>
