<svg width="57" height="56" viewBox="0 0 57 56" fill="none" xmlns="http://www.w3.org/2000/svg">
<path d="M9.06666 20.9999H48.2667M9.06666 34.9999H48.2667M27.5 6.99988C23.5691 13.299 21.4851 20.5749 21.4851 27.9999C21.4851 35.4249 23.5691 42.7008 27.5 48.9999M29.8333 6.99988C33.7642 13.299 35.8482 20.5749 35.8482 27.9999C35.8482 35.4249 33.7642 42.7008 29.8333 48.9999M7.66666 27.9999C7.66666 30.7576 8.20984 33.4884 9.26519 36.0362C10.3205 38.5841 11.8674 40.8991 13.8174 42.8491C15.7674 44.7991 18.0825 46.346 20.6303 47.4013C23.1781 48.4567 25.9089 48.9999 28.6667 48.9999C31.4244 48.9999 34.1552 48.4567 36.703 47.4013C39.2508 46.346 41.5659 44.7991 43.5159 42.8491C45.4659 40.8991 47.0128 38.5841 48.0681 36.0362C49.1235 33.4884 49.6667 30.7576 49.6667 27.9999C49.6667 22.4303 47.4542 17.0889 43.5159 13.1506C39.5776 9.21237 34.2362 6.99988 28.6667 6.99988C23.0971 6.99988 17.7557 9.21237 13.8174 13.1506C9.87915 17.0889 7.66666 22.4303 7.66666 27.9999Z" stroke="black" stroke-width="4.66667" stroke-linecap="round" stroke-linejoin="round"/>
</svg>
