<?xml version="1.0" encoding="UTF-8"?>
<svg xmlns="http://www.w3.org/2000/svg" version="1.1" xmlns:xlink="http://www.w3.org/1999/xlink" viewBox="0 0 263.49 263.49">
  <defs>
    <style>
      .cls-1 {
        filter: url(#drop-shadow-1);
      }

      .cls-2 {
        fill: #30bf39;
        fill-rule: evenodd;
      }
    </style>
    <filter id="drop-shadow-1" filterUnits="userSpaceOnUse">
      <feOffset dx="3" dy="3"/>
      <feGaussianBlur result="blur" stdDeviation="2"/>
      <feFlood flood-color="#000" flood-opacity=".1"/>
      <feComposite in2="blur" operator="in"/>
      <feComposite in="SourceGraphic"/>
    </filter>
  </defs>
  <!-- Generator: Adobe Illustrator 28.6.0, SVG Export Plug-In . SVG Version: 1.2.0 Build 709)  -->
  <g>
    <g id="OBJECTS">
      <g class="cls-1">
        <path class="cls-2" d="M179.8,151.55c-2.47-1.35-14.61-7.91-16.89-8.83-2.27-.93-3.94-1.41-5.72,1.05-1.77,2.45-6.81,7.94-8.33,9.56-1.54,1.63-3.01,1.78-5.49.42-2.46-1.35-10.48-4.32-19.77-13.25-7.23-6.95-11.98-15.38-13.35-17.95-1.38-2.58,0-3.89,1.3-5.09,1.18-1.09,2.63-2.85,3.95-4.27,1.31-1.42,1.77-2.45,2.67-4.1.9-1.64.54-3.13-.05-4.41-.58-1.28-5.15-13.86-7.06-18.98-1.91-5.11-4.04-4.36-5.51-4.41-1.47-.05-3.14-.32-4.81-.39-1.69-.06-4.43.47-6.83,2.9-2.4,2.43-9.14,8.28-9.6,20.67-.47,12.38,8.11,24.69,9.3,26.41,1.19,1.73,16.36,28.58,41.56,39.61,25.22,11.04,25.35,7.68,29.97,7.43,4.63-.25,15.12-5.54,17.44-11.33,2.32-5.8,2.5-10.84,1.92-11.91-.59-1.07-2.25-1.77-4.71-3.12h0ZM133.56,211.23c-16.66,0-32.2-5-45.16-13.58l-31.55,10.1,10.25-30.49c-9.83-13.53-15.63-30.16-15.63-48.13,0-45.27,36.82-82.09,82.08-82.09s82.09,36.82,82.09,82.09-36.82,82.09-82.09,82.09h0ZM133.56,30.53c-54.45,0-98.6,44.15-98.6,98.61,0,18.63,5.17,36.05,14.15,50.92l-17.8,52.9,54.59-17.48c14.13,7.81,30.38,12.27,47.66,12.27,54.47,0,98.62-44.15,98.62-98.61S188.03,30.53,133.56,30.53h0Z"/>
      </g>
    </g>
  </g>
</svg>