<svg width="50" height="50" viewBox="0 0 50 50" fill="none" xmlns="http://www.w3.org/2000/svg">
<path d="M49.625 47.875L32.125 30.375C32.0128 30.2554 31.8772 30.1601 31.7267 30.095C31.5762 30.0298 31.414 29.9962 31.25 29.9962C31.086 29.9962 30.9238 30.0298 30.7733 30.095C30.6228 30.1601 30.4872 30.2554 30.375 30.375L26.25 34.475L15 23.225V17.5H22.5V20C22.5 20.3315 22.6317 20.6495 22.8661 20.8839C23.1005 21.1183 23.4185 21.25 23.75 21.25H38.75C38.9805 21.2473 39.2062 21.1834 39.4039 21.0648C39.6016 20.9462 39.7642 20.7772 39.875 20.575C39.9733 20.3672 40.0136 20.1366 39.9916 19.9078C39.9696 19.6789 39.8861 19.4603 39.75 19.275L35.3 13.125L39.75 6.975C39.9067 6.80196 40.0129 6.58923 40.0569 6.35999C40.101 6.13075 40.0813 5.89381 40 5.675C39.8796 5.45335 39.6973 5.27151 39.4754 5.15166C39.2534 5.0318 39.0014 4.97911 38.75 5H30V1.25C30 0.918479 29.8683 0.600537 29.6339 0.366117C29.3995 0.131696 29.0815 0 28.75 0H13.75C13.4185 0 13.1005 0.131696 12.8661 0.366117C12.6317 0.600537 12.5 0.918479 12.5 1.25V23.225L1.1 34.625C0.401123 35.3306 0.00627914 36.2819 0 37.275V46.25C0 47.2446 0.395088 48.1984 1.09835 48.9016C1.80161 49.6049 2.75544 50 3.75 50H48.75C48.9968 49.9988 49.2377 49.9245 49.4423 49.7866C49.647 49.6487 49.8062 49.4533 49.9 49.225C50.0021 48.9997 50.0305 48.7479 49.9811 48.5055C49.9317 48.2631 49.8071 48.0424 49.625 47.875ZM36.3 7.5L32.75 12.5C32.5918 12.7086 32.5062 12.9632 32.5062 13.225C32.5062 13.4868 32.5918 13.7414 32.75 13.95L36.3 18.95H25V17.5H28.75C29.0815 17.5 29.3995 17.3683 29.6339 17.1339C29.8683 16.8995 30 16.5815 30 16.25V7.5H36.3ZM27.5 15H15V2.5H27.5V15ZM3.75 47.5C3.41848 47.5 3.10054 47.3683 2.86612 47.1339C2.6317 46.8995 2.5 46.5815 2.5 46.25V37.275C2.498 37.1111 2.53033 36.9485 2.59492 36.7978C2.6595 36.6471 2.75491 36.5116 2.875 36.4L13.75 25.525L25.375 37.125L35.725 47.5H3.75ZM39.275 47.5L28.025 36.25L31.25 33.025L45.725 47.5H39.275Z" fill="black"/>
</svg>
