<svg width="60" height="60" viewBox="0 0 60 60" fill="none" xmlns="http://www.w3.org/2000/svg">
<path fill-rule="evenodd" clip-rule="evenodd" d="M47.5 21.25L42.5 13.75H36.25L38.75 21.25L30 46.25L47.5 21.25Z" stroke="black" stroke-width="3.75" stroke-linecap="round" stroke-linejoin="round"/>
<path d="M10.9399 20.2099C10.3655 21.0716 10.5983 22.2357 11.4599 22.8101C12.3215 23.3845 13.4856 23.1517 14.0601 22.2901L10.9399 20.2099ZM17.5 13.75V11.875C16.8731 11.875 16.2876 12.1883 15.9399 12.7099L17.5 13.75ZM23.75 15.625C24.7855 15.625 25.625 14.7855 25.625 13.75C25.625 12.7145 24.7855 11.875 23.75 11.875V15.625ZM14.036 20.1748C13.4422 19.3264 12.2731 19.1201 11.4247 19.714C10.5764 20.3078 10.3701 21.4769 10.9639 22.3253L14.036 20.1748ZM30 46.25L28.464 47.3253C29.001 48.0925 30.022 48.3458 30.8552 47.9185C31.6887 47.4913 32.0792 46.5145 31.7697 45.6305L30 46.25ZM23.0197 20.6306C22.6776 19.6532 21.608 19.1382 20.6306 19.4803C19.6532 19.8224 19.1381 20.892 19.4802 21.8694L23.0197 20.6306ZM12.5 19.375C11.4644 19.375 10.625 20.2145 10.625 21.25C10.625 22.2855 11.4644 23.125 12.5 23.125V19.375ZM21.25 23.125C22.2855 23.125 23.125 22.2855 23.125 21.25C23.125 20.2145 22.2855 19.375 21.25 19.375V23.125ZM25.5287 14.3429C25.8562 13.3605 25.3252 12.2987 24.3429 11.9712C23.3605 11.6438 22.2986 12.1747 21.9712 13.1571L25.5287 14.3429ZM19.4712 20.6571C19.1437 21.6395 19.6746 22.7013 20.657 23.0288C21.6394 23.3563 22.7013 22.8253 23.0287 21.8429L19.4712 20.6571ZM23.75 11.875C22.7144 11.875 21.875 12.7145 21.875 13.75C21.875 14.7855 22.7144 15.625 23.75 15.625V11.875ZM36.25 15.625C37.2855 15.625 38.125 14.7855 38.125 13.75C38.125 12.7145 37.2855 11.875 36.25 11.875V15.625ZM21.25 19.375C20.2144 19.375 19.375 20.2145 19.375 21.25C19.375 22.2855 20.2144 23.125 21.25 23.125V19.375ZM47.5 23.125C48.5355 23.125 49.375 22.2855 49.375 21.25C49.375 20.2145 48.5355 19.375 47.5 19.375V23.125ZM14.0601 22.2901L19.0601 14.7901L15.9399 12.7099L10.9399 20.2099L14.0601 22.2901ZM17.5 15.625H23.75V11.875H17.5V15.625ZM10.9639 22.3253L28.464 47.3253L31.536 45.1748L14.036 20.1748L10.9639 22.3253ZM31.7697 45.6305L23.0197 20.6306L19.4802 21.8694L28.2302 46.8695L31.7697 45.6305ZM12.5 23.125H21.25V19.375H12.5V23.125ZM21.9712 13.1571L19.4712 20.6571L23.0287 21.8429L25.5287 14.3429L21.9712 13.1571ZM23.75 15.625H36.25V11.875H23.75V15.625ZM21.25 23.125H47.5V19.375H21.25V23.125Z" fill="black"/>
</svg>
