<svg width="60" height="34" viewBox="0 0 60 34" fill="none" xmlns="http://www.w3.org/2000/svg">
<path d="M59.2518 14.8916C59.1253 14.7417 56.0941 11.1773 50.978 7.56961C46.2348 4.22461 38.7449 0.237305 29.9999 0.237305C21.2549 0.237305 13.765 4.22461 9.02183 7.56961C3.90577 11.1776 0.8746 14.7417 0.748037 14.8917C-0.249346 16.0741 -0.249346 17.9262 0.748037 19.1085C0.874482 19.2584 3.90577 22.8227 9.02183 26.4305C13.7651 29.7755 21.2549 33.7628 29.9999 33.7628C38.7449 33.7628 46.2348 29.7755 50.978 26.4305C56.0941 22.8225 59.1252 19.2584 59.2517 19.1085C60.2493 17.9262 60.2493 16.0741 59.2518 14.8916ZM57.7692 17.857C57.7396 17.8921 54.7422 21.4104 49.8163 24.8757C45.3116 28.045 38.2169 31.8229 29.9998 31.8229C21.7826 31.8229 14.688 28.045 10.1833 24.8757C5.25741 21.4104 2.26011 17.8922 2.23058 17.8573C1.84526 17.4007 1.84538 16.5995 2.23034 16.143C2.26011 16.108 5.25741 12.5897 10.1833 9.12434C14.6878 5.95512 21.7827 2.17723 29.9998 2.17723C38.217 2.17723 45.3116 5.95512 49.8163 9.12434C54.7422 12.5897 57.7395 16.1079 57.7689 16.1427C58.1543 16.5995 58.1543 17.4007 57.7692 17.857Z" fill="black"/>
<path d="M29.9995 3.87207C22.7607 3.87207 16.8716 9.76121 16.8716 17.0001C16.8716 24.239 22.7606 30.1282 29.9995 30.1282C37.2383 30.1282 43.1274 24.239 43.1274 17.0001C43.1274 9.76121 37.2382 3.87207 29.9995 3.87207ZM29.9995 28.1881C23.8305 28.1881 18.8116 23.1692 18.8116 17.0001C18.8116 10.831 23.8304 5.81211 29.9995 5.81211C33.0102 5.81211 35.7464 7.00777 37.7596 8.94887C37.1843 8.54856 36.4861 8.31324 35.7337 8.31324C34.6434 8.31324 33.6667 8.80684 33.0138 9.5818C32.0611 9.19543 31.0346 8.99305 29.9994 8.99305C25.5842 8.99305 21.9923 12.585 21.9923 17.0001C21.9923 21.4153 25.5844 25.0072 29.9994 25.0072C34.4144 25.0072 38.0065 21.4153 38.0065 17.0001C38.0065 16.2582 37.9044 15.5312 37.7061 14.8278C38.6605 14.1891 39.2903 13.1019 39.2903 11.8699C39.2903 11.2599 39.1358 10.6856 38.864 10.1833C40.3199 12.072 41.187 14.4365 41.187 17C41.1873 23.1691 36.1685 28.1881 29.9995 28.1881ZM35.7338 15.4266C35.7757 15.4266 35.8171 15.4249 35.8584 15.4236C35.9956 15.9344 36.0667 16.462 36.0667 17.0002C36.0667 20.3456 33.345 23.0674 29.9995 23.0674C26.6542 23.0674 23.9324 20.3457 23.9324 17.0002C23.9324 13.6548 26.654 10.9331 29.9995 10.9331C30.7596 10.9331 31.5135 11.0763 32.2154 11.3511C32.1906 11.5205 32.1771 11.6937 32.1771 11.8701C32.1771 13.831 33.7726 15.4266 35.7338 15.4266ZM35.7338 13.4866C34.8423 13.4866 34.1171 12.7614 34.1171 11.8699C34.1171 10.9784 34.8423 10.2532 35.7338 10.2532C36.6254 10.2532 37.3506 10.9783 37.3506 11.8699C37.3505 12.7614 36.6252 13.4866 35.7338 13.4866Z" fill="black"/>
</svg>
